<svg width="64" height="64" viewBox="0 0 64 64" fill="none" xmlns="http://www.w3.org/2000/svg">
<rect width="64" height="64" rx="32" fill="#141416"/>
<path fill-rule="evenodd" clip-rule="evenodd" d="M35.3185 11.6802C34.1498 11.2267 32.9247 11 31.643 11C30.3612 11 29.1266 11.2267 27.9392 11.6802C26.7705 12.1148 25.7244 12.7572 24.8008 13.6074C24.2837 14.0835 23.8257 14.6187 23.4268 15.2132V11.4251H7V16.1015H12.5698V30.3289H17.8569V16.1015H22.8978C22.7913 16.3036 22.6906 16.5114 22.5955 16.725C22.0678 17.9531 21.8039 19.3513 21.8039 20.9195C21.8039 22.4877 22.0678 23.8859 22.5955 25.1141C23.1421 26.3422 23.8772 27.3814 24.8008 28.2316C25.7244 29.0819 26.7705 29.7337 27.9392 30.1872C29.1266 30.6217 30.3612 30.839 31.643 30.839C32.9247 30.839 34.1498 30.6217 35.3185 30.1872C36.506 29.7337 37.5615 29.0819 38.4851 28.2316C39.4087 27.3814 40.1343 26.3422 40.6621 25.1141C41.2087 23.8859 41.482 22.4877 41.482 20.9195C41.482 19.3513 41.2087 17.9531 40.6621 16.725C40.1343 15.4968 39.4087 14.4577 38.4851 13.6074C37.5615 12.7572 36.506 12.1148 35.3185 11.6802ZM29.3811 16.6116C30.0408 16.177 30.7948 15.9598 31.643 15.9598C32.4912 15.9598 33.2451 16.177 33.9048 16.6116C34.5834 17.0462 35.1111 17.6414 35.4881 18.3971C35.8651 19.134 36.0536 19.9748 36.0536 20.9195C36.0536 21.8642 35.8651 22.7145 35.4881 23.4702C35.1111 24.2071 34.5834 24.7929 33.9048 25.2274C33.2451 25.662 32.4912 25.8793 31.643 25.8793C30.7948 25.8793 30.0408 25.662 29.3811 25.2274C28.7214 24.7929 28.1936 24.2071 27.7978 23.4702C27.4208 22.7145 27.2323 21.8642 27.2323 20.9195C27.2323 19.9748 27.4208 19.134 27.7978 18.3971C28.1936 17.6414 28.7214 17.0462 29.3811 16.6116Z" fill="#FCFCFD"/>
<path d="M40.7469 42.7897V31.2547H35.4598V42.4213C35.4598 43.4038 35.196 44.2068 34.6682 44.8303C34.1404 45.4349 33.3111 45.7467 32.1801 45.7655C31.0492 45.7844 30.2199 45.4821 29.6921 44.8586C29.1643 44.2162 28.9005 43.4038 28.9005 42.4213V31.2547H23.6134V42.7897C23.6134 44.4335 23.9998 45.8506 24.7726 47.0409C25.5454 48.2313 26.582 49.1476 27.8826 49.79C29.1832 50.4136 30.6157 50.7253 32.1801 50.7253C33.7635 50.7253 35.196 50.4136 36.4777 49.79C37.7783 49.1476 38.8149 48.2313 39.5877 47.0409C40.3605 45.8506 40.7469 44.4335 40.7469 42.7897Z" fill="#FCFCFD"/>
<path d="M20.8539 43.895V39.2187H14.1249V35.9877H22.2676V31.3114H8.83776V50.3002H14.1249V43.895H20.8539Z" fill="#FCFCFD"/>
<path d="M53.1118 43.3262H48.4467V36.581H42.057V31.2811H61V61H56.3349V55.4167H42.1418V50.1169H56.3349V36.581H53.1118V43.3262Z" fill="#FCFCFD"/>
<path d="M42.0547 28.7682H61V23.9783H51.2458L61 13.2937V11.4232H42.0547V16.3261H51.0761L42.0547 26.8976V28.7682Z" fill="#FCFCFD"/>
</svg>
